<?xml version="1.0" encoding="UTF-8"?><svg id="Capa_1" xmlns="http://www.w3.org/2000/svg" viewBox="0 0 1080 1080"><defs><style>.cls-1,.cls-2{fill:#acacac;}.cls-2{font-family:Poppins-Light, Poppins;font-size:30.56px;font-weight:300;letter-spacing:.12em;}</style></defs><g><path class="cls-1" d="M688.32,485.23c-3.32,.17-5.82,3.16-5.82,6.49v73.16h-.27l-48.7-72.93c-1.67-2.5-4.47-4-7.48-4-4.97,0-8.99,4.03-8.99,8.99v79.38c0,3.33,2.49,6.31,5.82,6.49,3.55,.19,6.48-2.63,6.48-6.14v-69.99h.27l48.29,72.14c1.67,2.49,4.47,3.99,7.47,3.99h.42c4.97,0,8.99-4.03,8.99-8.99v-82.46c0-3.5-2.93-6.32-6.48-6.14Z"/><path class="cls-1" d="M681.82,494.41s0-.01,0-.02,0-.01,0-.02v.04Z"/><path class="cls-1" d="M694.79,494.39s0,.01,0,.02v-.04s0,.01,0,.02Z"/></g><g><g><path class="cls-1" d="M534.36,504.8s0,.01,0,.02,0,.01,0,.02v-.04Z"/><path class="cls-1" d="M521.38,504.8v.04s0-.01,0-.02,0-.01,0-.02Z"/><path class="cls-1" d="M535.72,542.09c-1.78-3.1-4.15-5.67-7.1-7.71-2.96-2.04-6.31-3.65-10.04-4.85-3.74-1.19-7.54-2.24-11.41-3.12-3.87-.88-7.67-1.71-11.41-2.46-3.74-.75-7.08-1.7-10.04-2.86-2.96-1.15-5.33-2.64-7.1-4.45-1.78-1.82-2.66-4.19-2.66-7.11,0-3.1,.61-5.69,1.84-7.77,1.23-2.08,2.87-3.74,4.92-4.98,2.05-1.24,4.39-2.13,7.03-2.66,2.64-.53,5.33-.8,8.06-.8,1.94,0,6.94-.03,6.94-5.38,0-4.62-4.77-5.18-6.07-5.24-.11,0-.22,0-.33,0-4.46,0-8.81,.55-13.05,1.66-4.23,1.11-8.02,2.79-11.34,5.05-3.33,2.26-5.99,5.14-7.99,8.64-2,3.5-3.01,7.64-3.01,12.42,0,4.34,.89,7.95,2.66,10.83,1.78,2.88,4.14,5.23,7.1,7.04,2.96,1.82,6.31,3.28,10.04,4.38,3.73,1.11,7.53,2.08,11.41,2.92,3.87,.84,7.67,1.66,11.41,2.46,3.73,.8,7.08,1.84,10.04,3.12,2.96,1.29,5.33,2.95,7.1,4.98,1.78,2.04,2.66,4.7,2.66,7.97,0,3.45-.73,6.29-2.19,8.5-1.46,2.22-3.37,3.97-5.74,5.25-2.37,1.29-5.03,2.19-7.99,2.72-2.96,.53-5.9,.8-8.81,.8-3.64,0-7.2-.44-10.66-1.33-3.46-.88-6.49-2.26-9.08-4.12-2.6-1.86-4.69-4.23-6.28-7.11-.91-1.64-1.56-3.47-1.95-5.48-.54-2.76-2.83-4.82-5.64-4.82h-.91c-3.57,0-6.24,3.24-5.63,6.76,.52,3,1.4,5.73,2.66,8.19,2.14,4.21,5.06,7.66,8.74,10.36,3.69,2.7,7.97,4.72,12.84,6.05,4.87,1.33,10.04,1.99,15.5,1.99,4.46,0,8.95-.51,13.46-1.53,4.51-1.02,8.58-2.66,12.23-4.92,3.64-2.26,6.63-5.18,8.95-8.77,2.32-3.59,3.48-7.91,3.48-12.96,0-4.69-.89-8.59-2.66-11.69Z"/></g><g><path class="cls-1" d="M462.9,559.53s0-.01,0-.02,0-.01,0-.02v.04Z"/><path class="cls-1" d="M475.68,559.53v-.04s0,.01,0,.02,0,.01,0,.02Z"/><path class="cls-1" d="M537.4,509.73c-.51-2.95-1.38-5.64-2.62-8.07-2.11-4.15-4.98-7.55-8.61-10.21-3.63-2.66-7.85-4.65-12.65-5.96-4.8-1.31-9.89-1.96-15.27-1.96-4.39,0-8.81,.5-13.26,1.51-4.44,1-8.45,2.62-12.04,4.84-.04,.02-.07,.05-.1,.07,4.63,.41,10.23,2.06,13.96,5.24,.77-.2,1.55-.38,2.36-.53,2.92-.52,5.81-.79,8.68-.79,3.59,0,7.09,.44,10.5,1.31,3.41,.87,6.39,2.22,8.95,4.06,2.56,1.83,4.62,4.16,6.19,7,.9,1.62,1.54,3.42,1.92,5.39,.53,2.72,2.79,4.75,5.56,4.75h.89c3.52,0,6.15-3.19,5.55-6.66Z"/></g></g><g><path class="cls-1" d="M578.05,483.44h.05c3.57,0,6.47,2.9,6.47,6.47v85.98c0,3.57-2.9,6.47-6.47,6.47h-.05c-3.57,0-6.47-2.9-6.47-6.47v-85.98c0-3.57,2.9-6.47,6.47-6.47Z"/><path class="cls-1" d="M571.59,493.95s0-.01,0-.02,0-.01,0-.02v.04Z"/><path class="cls-1" d="M584.56,493.93s0,.01,0,.02v-.04s0,.01,0,.02Z"/></g><g><path class="cls-1" d="M778.58,486.04c-6.86,.17-10.22,5.4-10.22,10.39v44.41c0,3.19,2.59,5.78,5.78,5.78h0c3.19,0,5.78-2.59,5.78-5.78v-37.19c0-3.45,3.01-6.21,6.43-5.75,2.35,.31,26.1,3.94,27.24,30.75,.25,5.94-1.13,14.16-3.4,18.67-2.26,4.51-5.29,8.3-9.1,11.36-3.81,3.07-8.19,5.4-13.15,6.98-4.96,1.59-10.14,2.38-15.53,2.38s-10.86-.69-16.11-2.08c-5.25-1.39-9.92-3.54-14.02-6.46-4.09-2.92-7.39-6.68-9.9-11.29-2.5-4.6-3.76-10.13-3.76-16.56,0-3.96,.46-7.7,1.37-11.22,.92-3.51,2.29-6.66,4.12-9.43,1.83-2.77,4.17-5.1,7.01-6.98,1.85-1.23,3.94-2.2,6.27-2.92,2.36-.73,3.92-2.99,3.92-5.47v-2.24c0-3.94-3.87-6.75-7.6-5.5-2.92,.98-5.56,2.22-7.93,3.72-4.29,2.73-7.82,6.09-10.62,10.1-2.79,4.01-4.84,8.57-6.14,13.67-1.3,5.1-1.95,10.52-1.95,16.27,0,8.42,1.52,15.77,4.55,22.06,3.03,6.29,7.1,11.54,12.21,15.75,5.11,4.21,11.05,7.38,17.84,9.51,6.79,2.13,13.94,3.19,21.46,3.19,6.74,0,13.25-1.14,19.51-3.42,6.26-2.28,11.8-5.59,16.62-9.95,4.82-4.36,8.65-9.66,11.49-15.9,2.84-6.24,4.36-16.31,4.26-24.24-.28-23.28-13.58-43.43-46.42-42.6Z"/><path class="cls-1" d="M774.19,558.17s.01,0,.02,0,.01,0,.02,0h-.04Z"/></g><g><path class="cls-1" d="M442.17,573.67l-31.92-79.45c-1.45-3.6-5.01-5.97-8.99-5.97h-.94c-3.98,0-7.55,2.37-8.99,5.98l-31.8,79.45c-1.54,3.86,1.38,8.02,5.64,8.02,2.53,0,4.79-1.53,5.67-3.83l26.61-70.41c1.03-2.71,4.97-2.71,5.99,0l26.38,70.36c.87,2.33,3.14,3.88,5.69,3.88h1.03c4.26,0,7.19-4.17,5.64-8.03Z"/><path class="cls-1" d="M406.23,548.74v-.03s0,.01,0,.02,0,.01,0,.02Z"/><path class="cls-1" d="M395.47,548.74s0-.01,0-.02,0-.01,0-.02v.03Z"/></g><g><path class="cls-1" d="M335.54,546.48c-2.97,0-5.49,2.11-6.09,5.02-.41,1.98-.99,3.89-1.73,5.72-1.35,3.32-3.21,6.17-5.58,8.57-2.38,2.4-5.2,4.28-8.48,5.63-3.28,1.35-7.02,2.03-11.24,2.03-5.74,0-10.68-1.05-14.8-3.14-4.13-2.1-7.51-4.91-10.16-8.44-2.65-3.53-4.6-7.68-5.85-12.43-1.26-4.75-1.88-9.79-1.88-15.12,0-4.89,.63-9.6,1.88-14.13,1.26-4.54,3.21-8.57,5.85-12.11,2.64-3.53,6.01-6.35,10.09-8.44,4.08-2.09,8.99-3.14,14.74-3.14,6.73,0,12.53,1.66,17.43,4.97,3.82,2.59,6.59,6.2,8.3,10.81,.91,2.45,3.22,4.11,5.84,4.11h.09c4.44,0,7.43-4.51,5.75-8.62-.65-1.59-1.41-3.1-2.29-4.53-2.33-3.8-5.25-6.96-8.75-9.49-3.5-2.53-7.49-4.45-11.98-5.76-4.49-1.31-9.24-1.96-14.26-1.96-7.36,0-13.88,1.29-19.58,3.86-5.7,2.58-10.45,6.09-14.26,10.54-3.81,4.45-6.71,9.66-8.68,15.64-1.97,5.98-2.96,12.37-2.96,19.17s.92,13.18,2.76,19.11c1.84,5.93,4.6,11.08,8.28,15.44,3.68,4.36,8.3,7.79,13.86,10.27,5.56,2.49,12.06,3.73,19.51,3.73,12.29,0,21.98-3.27,29.07-9.82,5.44-5.02,9.16-11.59,11.17-19.69,.98-3.95-1.96-7.79-6.03-7.79Z"/><path class="cls-1" d="M304.73,533.84s0,.01,0,.02,0,.01,0,.02v-.03Z"/><path class="cls-1" d="M293.97,533.87s0-.01,0-.02,0-.01,0-.02v.03Z"/></g><text class="cls-2" transform="translate(472.84 630.22)"><tspan x="0" y="0">visuals</tspan></text></svg>